
        <svg xmlns="http://www.w3.org/2000/svg" xmlns:xlink="http://www.w3.org/1999/xlink" version="1.1" width="3162.3083859332733" 
        height="838.8167354739107" viewBox="0 0 3162.3083859332733 838.8167354739107">
			
			<g transform="scale(8.11541929666366) translate(10, 10)">
				<defs id="SvgjsDefs9723"><linearGradient id="SvgjsLinearGradient9728"><stop id="SvgjsStop9729" stop-color="#ee2a7b" offset="0"></stop><stop id="SvgjsStop9730" stop-color="#ff7db8" offset="1"></stop></linearGradient></defs><g id="SvgjsG9724" featureKey="symbolFeature-0" transform="matrix(0.6511931582428985,0,0,0.6511931582428985,0.0000013204374098591588,0.008389294215824851)" fill="url(#SvgjsLinearGradient9728)"><title xmlns="http://www.w3.org/2000/svg">travel, map, Airplane, plane, pin, trip</title><path xmlns="http://www.w3.org/2000/svg" d="M43.52,73.6v-24a1,1,0,0,0-2,0v24a1,1,0,0,0,2,0Z"></path><path xmlns="http://www.w3.org/2000/svg" d="M127.53.32a1,1,0,0,0-1,0l-41,20-8.05-3.81,8.28,0h0a2.76,2.76,0,0,0,1.29-5.2c0-.14,0-.28,0-.42a5.27,5.27,0,0,0-4-5.14A3.69,3.69,0,0,0,79.5,4a5.51,5.51,0,0,0-3.66-1.41h0a5.53,5.53,0,0,0-4.48,2.32,4.54,4.54,0,0,0-2.85-1,4.6,4.6,0,0,0-4.6,4.6,4.53,4.53,0,0,0,.07.8,3.17,3.17,0,0,0-.59.4L43,.1h0A1,1,0,0,0,42.61,0h0a1,1,0,0,0-.32,0l-.08,0-.07,0L.56,20.4a1,1,0,0,0-.56.9V126.83a1,1,0,0,0,1.44.9l41.13-20.08,42,19.9a1,1,0,0,0,1.27.35l41.57-20.29a1,1,0,0,0,.56-.9V1.17A1,1,0,0,0,127.53.32ZM65.3,11a1,1,0,0,0,.83-1.41A2.59,2.59,0,0,1,70.7,7.2,1,1,0,0,0,72.49,7a3.55,3.55,0,0,1,3.33-2.39h0a3.48,3.48,0,0,1,2.61,1.19,1,1,0,0,0,1.07.28,1.69,1.69,0,0,1,.54-.1,1.73,1.73,0,0,1,1.57,1,1,1,0,0,0,.75.58A3.23,3.23,0,0,1,85,11.71,1,1,0,0,0,85.91,13a.77.77,0,0,1,.7.76.74.74,0,0,1-.77.76l-22.29-.07a.76.76,0,0,1-.12-1.52,1,1,0,0,0,.82-.87A1.16,1.16,0,0,1,65.3,11ZM126,106.08,86.43,125.4V103.27a1,1,0,0,0-2,0v22L43.57,105.9V98a1,1,0,0,0-2,0v7.95L2,125.23V21.92L41.57,2.6V31.19a1,1,0,0,0,2,0V2.58l18.48,8.75a2.76,2.76,0,0,0,1.49,5.08l9.3,0,11.59,5.49v8.41a1,1,0,1,0,2,0V22.09L126,2.77Z"></path><path xmlns="http://www.w3.org/2000/svg" d="M82.63,37.65a2.69,2.69,0,0,1-1.72.45c-.55,0-6.4-.5-9.85-.8a3.89,3.89,0,0,0-6.4-4.1l-3.26,3.26-8.27-.73A3.88,3.88,0,0,0,47,31.14l-3.7,3.7L26.8,33.36a1,1,0,0,0-.62.15l-4.5,2.82a1,1,0,0,0-.18.14l-1.08,1.08a1,1,0,0,0,.71,1.71h3.06L54.5,50.75l9.61,5.45c-6.79,7-14.39,16.33-17.49,20.2l0,.06-1.17.29-15.94-.83a1,1,0,0,0-.76.29l-2.28,2.28A1,1,0,0,0,26.61,80l11.68,7.21c-2.17,3.16-1.84,3.5-1.44,3.9a.79.79,0,0,0,.61.31c.48,0,1.37-.39,3.31-1.72L48,101.39a1,1,0,0,0,.74.47h.12a1,1,0,0,0,.71-.29l2.28-2.28a1,1,0,0,0,.29-.76L51.25,82.6l.28-1.12.1-.08c3.84-3.09,13.1-10.67,20.17-17.52l5.45,9.61,11.49,30.31v3.06a1,1,0,0,0,1.71.71l1.08-1.08a1,1,0,0,0,.14-.18l2.82-4.5a1,1,0,0,0,.15-.62s-.59-6.48-1.48-16.46l3.7-3.7a3.88,3.88,0,0,0-4.58-6.17c-.29-3.31-.41-4.58-.73-8.27l3.26-3.26a3.89,3.89,0,0,0-4.1-6.4c-.31-3.55-.8-9.31-.8-9.85a2.75,2.75,0,0,1,.43-1.69l0-.05c5-5.11,20.32-21.34,17-24.68s-19.56,12-24.67,17ZM71,49.24,58.49,44.69,48,41.11a3.8,3.8,0,0,0,.3-.24l3.28-3.28,1.13.1,7.13.63A3.89,3.89,0,0,0,66,42.92l3.73-3.73c6.74.59,9.43.8,10.53.88Zm-5-14.63a1.9,1.9,0,0,1,2.68,2.68l-4.22,4.22a1.9,1.9,0,0,1-2.68-2.68Zm-17.7-2.06a1.9,1.9,0,0,1,2.68,2.68l-.54.54h0l-3.66,3.66a1.9,1.9,0,0,1-2.68-2.68Zm-24,4.71H24l3-1.88,14.91,1.34a3.9,3.9,0,0,0,0,2.63l-11-1.48a1,1,0,0,0-.7.17l-1.27.87-4.17-1.58A1,1,0,0,0,24.37,37.26ZM55.42,49l-.14-.06L31.84,40,43,41.53l14.81,5L69.48,50.8,66,54.24l-.36.36,0,0-.08.08ZM28.73,79l1.07-1.07,15,.78c-2.37,3-4.09,5.22-5.32,6.9ZM50.06,98.19,49,99.27,42.4,88.59c1.68-1.22,3.91-2.94,6.88-5.31ZM79,72.58,73.28,62.44l.08-.08,3.84-3.84,4.22,11.64L86.47,85,88,96.15,79.09,72.72Zm8.91-24.8c.07,1.1.29,3.79.88,10.53L85.08,62a3.88,3.88,0,0,0,4.6,6.16c.27,3.06.39,4.37.73,8.26l-3.28,3.28a3.81,3.81,0,0,0-.24.3L83.3,69.5,78.76,57ZM90.74,104v-.41a1,1,0,0,0-.06-.35L89.09,99.1,90,97.83a1,1,0,0,0,.17-.7l-1.48-11a3.73,3.73,0,0,0,2.63,0c.72,8,1.21,13.53,1.34,14.91Zm3.37-27.65a1.89,1.89,0,0,1,1.34,3.23l-4.22,4.22a1.9,1.9,0,0,1-2.68-2.68l4.22-4.22A1.89,1.89,0,0,1,94.11,76.39Zm-.72-17.15a1.9,1.9,0,0,1,0,2.68l-4.22,4.22a1.9,1.9,0,0,1-2.68-2.68l4.22-4.22a1.9,1.9,0,0,1,2.68,0Zm12.49-37.12c.08,2-6.16,11-18.26,23.15L71.94,60.94c-9.12,9.12-24.38,21.34-31.19,26.32C45.75,80.42,58,65.12,67,56.1l0,0L82.73,40.38c12-12,21.06-18.26,23.11-18.26Z"></path><path xmlns="http://www.w3.org/2000/svg" d="M34,64.94a2.88,2.88,0,0,0-1.73-2.63A3.31,3.31,0,0,0,29.09,60a3.52,3.52,0,0,0-.91.13,5.13,5.13,0,0,0-4.88-3.49h0a5.9,5.9,0,0,0-5.34-3.45h0a5.83,5.83,0,0,0-5.22,3.25,9.36,9.36,0,0,0-1.23-.13A5.62,5.62,0,0,0,5.87,62a4.73,4.73,0,0,0,0,.49,2.88,2.88,0,0,0,1.31,5.45h0l23.86-.07A2.89,2.89,0,0,0,34,64.94Zm-26.75,1h0a.88.88,0,0,1-.07-1.77A1,1,0,0,0,8,62.88,3.56,3.56,0,0,1,7.87,62a3.62,3.62,0,0,1,3.6-3.62h0a3.58,3.58,0,0,1,1.4.28A1,1,0,0,0,14.24,58a3.85,3.85,0,0,1,3.69-2.77h0A3.89,3.89,0,0,1,21.64,58a1,1,0,0,0,1.12.71,5,5,0,0,1,.53-.06,3.15,3.15,0,0,1,3.16,3.07,1,1,0,0,0,1.71.68,1.31,1.31,0,0,1,2.23.78,1,1,0,0,0,.83.87.89.89,0,0,1-.14,1.76Z"></path><path xmlns="http://www.w3.org/2000/svg" d="M15.18,91.39a7.35,7.35,0,0,0-7.34,7.34c0,3.71,5.85,12.36,6.52,13.33a1,1,0,0,0,1.65,0c.67-1,6.52-9.63,6.52-13.33A7.35,7.35,0,0,0,15.18,91.39Zm0,18.31c-2-3.09-5.34-8.7-5.34-11a5.34,5.34,0,0,1,10.69,0C20.52,101,17.19,106.61,15.18,109.7Z"></path><path xmlns="http://www.w3.org/2000/svg" d="M15.18,95.47a3.27,3.27,0,1,0,3.27,3.27A3.27,3.27,0,0,0,15.18,95.47Zm0,4.53a1.27,1.27,0,1,1,1.27-1.27A1.27,1.27,0,0,1,15.18,100Z"></path><path xmlns="http://www.w3.org/2000/svg" d="M100.25,50.55c0,5.88,10,20.49,10.38,21.11a1,1,0,0,0,1.65,0c.42-.62,10.38-15.23,10.38-21.11a11.21,11.21,0,1,0-22.41,0Zm11.21-9.21a9.22,9.22,0,0,1,9.21,9.21c0,4-6,13.94-9.21,18.75-3.17-4.81-9.21-14.76-9.21-18.75A9.22,9.22,0,0,1,111.46,41.34Z"></path><path xmlns="http://www.w3.org/2000/svg" d="M111.46,56.72a6.17,6.17,0,1,0-6.17-6.17A6.17,6.17,0,0,0,111.46,56.72Zm0-10.34a4.17,4.17,0,1,1-4.17,4.17A4.17,4.17,0,0,1,111.46,46.38Z"></path><path xmlns="http://www.w3.org/2000/svg" d="M50.37,117c-.67-.14-1.52-.36-1.93-.5-.14-.47-.37-1.52-.52-2.39a1,1,0,0,0-2,0c-.15.87-.38,1.92-.52,2.39a19.47,19.47,0,0,1-1.93.5,1,1,0,0,0,0,2,19.56,19.56,0,0,1,1.93.5c.14.47.37,1.52.52,2.39a1,1,0,0,0,2,0c.15-.87.38-1.92.52-2.39a19.51,19.51,0,0,1,1.93-.5,1,1,0,0,0,0-2ZM47,118l0,0,0,0,0,0,0,0,0,0,0,0,0,0Z"></path><path xmlns="http://www.w3.org/2000/svg" d="M23.39,19.35a30.23,30.23,0,0,1,3.15.7c.2.69.51,2.58.73,4.16a1,1,0,0,0,2,0c.21-1.58.53-3.46.73-4.16a30.71,30.71,0,0,1,3.15-.7,1,1,0,0,0,0-2,30.21,30.21,0,0,1-3.15-.7c-.2-.69-.51-2.58-.73-4.16a1,1,0,0,0-2,0c-.21,1.58-.53,3.46-.73,4.16a30.18,30.18,0,0,1-3.15.7,1,1,0,0,0,0,2ZM28,18.13a1.07,1.07,0,0,0,.24-.34,1.07,1.07,0,0,0,.24.34,1.17,1.17,0,0,0,.33.24,1.16,1.16,0,0,0-.33.24,1.06,1.06,0,0,0-.24.34,1.07,1.07,0,0,0-.24-.34,1.16,1.16,0,0,0-.33-.24A1.16,1.16,0,0,0,28,18.13Z"></path><path xmlns="http://www.w3.org/2000/svg" d="M121.87,81a22.11,22.11,0,0,1-2.52-.67,28.66,28.66,0,0,1-.69-3.08,1,1,0,0,0-2,0,28.54,28.54,0,0,1-.69,3.08,22.12,22.12,0,0,1-2.52.67,1,1,0,0,0,0,2,22.09,22.09,0,0,1,2.52.67,28.66,28.66,0,0,1,.69,3.08,1,1,0,0,0,2,0,28.54,28.54,0,0,1,.69-3.08,22.08,22.08,0,0,1,2.52-.67,1,1,0,0,0,0-2Zm-4,1.19a1.12,1.12,0,0,0-.21.28,1.11,1.11,0,0,0-.21-.28,1.2,1.2,0,0,0-.28-.21,1.18,1.18,0,0,0,.28-.21,1.12,1.12,0,0,0,.21-.28,1.14,1.14,0,0,0,.21.28,1.21,1.21,0,0,0,.28.21A1.21,1.21,0,0,0,117.89,82.14Z"></path></g><g id="SvgjsG9725" featureKey="nameFeature-0" transform="matrix(1.5789658028173816,0,0,1.5789658028173816,99.48427485126346,0.43481012328472346)" fill="#f7fbfc"><path d="M2.2266 12.050999999999998 l0 27.949 l5.1953 0 l16.465 -27.949 l-4.9219 0 l-12.48 21.191 l0 -21.191 l-4.2578 0 z M29.062525 18.945 c-1.9531 1.9531 -2.9297 4.31 -2.9297 7.0703 s0.97656 5.1172 2.9297 7.0703 s4.31 2.9297 7.0703 2.9297 s5.1172 -0.97656 7.0703 -2.9297 s2.9297 -4.31 2.9297 -7.0703 s-0.97656 -5.1172 -2.9297 -7.0703 s-4.31 -2.9297 -7.0703 -2.9297 s-5.1172 0.97656 -7.0703 2.9297 z M26.054725 36.0937 c-2.7865 -2.7865 -4.1797 -6.1459 -4.1797 -10.078 s1.3932 -7.2916 4.1797 -10.078 s6.1459 -4.1797 10.078 -4.1797 s7.2916 1.3932 10.078 4.1797 s4.1797 6.1459 4.1797 10.078 s-1.3932 7.2916 -4.1797 10.078 s-6.1459 4.1797 -10.078 4.1797 s-7.2916 -1.3932 -10.078 -4.1797 z M59.628925 33.0859 c-1.9531 -1.9531 -2.9297 -4.31 -2.9297 -7.0703 s0.97656 -5.1172 2.9297 -7.0703 c1.9531 -1.9662 4.31 -2.9492 7.0703 -2.9492 c1.6927 0 3.2748 0.40365 4.7461 1.2109 l0 -4.6484 c-1.5365 -0.53385 -3.1186 -0.80078 -4.7461 -0.80078 c-3.9322 0 -7.2916 1.3932 -10.078 4.1797 s-4.1797 6.1459 -4.1797 10.078 s1.3932 7.2916 4.1797 10.078 s6.1459 4.1797 10.078 4.1797 c1.6276 0 3.2096 -0.27344 4.7461 -0.82031 l0 -4.6289 c-1.4713 0.79428 -3.0533 1.1914 -4.7461 1.1914 c-2.7604 0 -5.1172 -0.97656 -7.0703 -2.9297 z M74.9609875 12.050999999999998 l0 27.949 l14.258 0 l0 -4.2383 l-10.02 0 l0 -23.711 l-4.2383 0 z M96.8945375 12.09 l-4.2383 0 l0 27.91 l4.2383 0 l0 -27.91 z M105.6835875 21.25 c0.85938 -1.5885 2.0639 -2.8516 3.6133 -3.7891 c1.5885 -0.96354 3.3139 -1.4453 5.1758 -1.4453 c2.7604 0 5.1172 0.97656 7.0703 2.9297 s2.9297 4.31 2.9297 7.0703 c0 2.5521 -0.85287 4.7787 -2.5586 6.6797 z M107.4023875 33.0859 c-1.9531 -1.9531 -2.9297 -4.31 -2.9297 -7.0703 l0 -0.41016 l13.75 9.6875 c-1.1979 0.48178 -2.4479 0.72266 -3.75 0.72266 c-2.7604 0 -5.1172 -0.97656 -7.0703 -2.9297 z M125.4096875 35.1562 c2.2135 -2.6563 3.3203 -5.7031 3.3203 -9.1406 c0 -3.9322 -1.3932 -7.2916 -4.1797 -10.078 s-6.1459 -4.1797 -10.078 -4.1797 s-7.2916 1.3932 -10.078 4.1797 s-4.1797 6.1459 -4.1797 10.078 s1.3932 7.2916 4.1797 10.078 s6.1459 4.1797 10.078 4.1797 c2.7734 0 5.3256 -0.74219 7.6563 -2.2266 l2.7539 1.9336 l7.3828 0 z M135.078175 37.3437 c-1.9401 -1.9401 -2.9102 -4.2838 -2.9102 -7.0313 l0 -18.281 l4.2578 0 l0 18.281 c0 1.5755 0.55338 2.9166 1.6602 4.0234 c1.1198 1.1198 2.4609 1.6797 4.0234 1.6797 c1.5755 0 2.9166 -0.5599 4.0234 -1.6797 c1.1198 -1.1068 1.6797 -2.4479 1.6797 -4.0234 l0 -18.281 l4.2578 0 l0 18.281 c0 2.7475 -0.97656 5.0912 -2.9297 7.0313 c-1.9401 1.9401 -4.2838 2.9102 -7.0313 2.9102 c-2.7344 0 -5.0781 -0.97006 -7.0313 -2.9102 z M156.85551875 12.050999999999998 l0 27.949 l14.258 0 l0 -4.2383 l-10.02 0 l0 -7.6563 l7.7344 0 l0 -4.2383 l-7.7344 0 l0 -7.5781 l10.02 0 l0 -4.2383 l-14.258 0 z"></path></g>
			</g>
		</svg>
	